<svg width="24" height="24" viewBox="0 0 24 24" fill="none" xmlns="http://www.w3.org/2000/svg">
<g id="location_on">
<mask id="mask0_40_936" style="mask-type:alpha" maskUnits="userSpaceOnUse" x="0" y="0" width="24" height="24">
<rect id="Bounding box" width="24" height="24" fill="#D9D9D9"/>
</mask>
<g mask="url(#mask0_40_936)">
<path id="location_on_2" d="M12 11.9998C12.55 11.9998 13.0208 11.804 13.4125 11.4123C13.8042 11.0207 14 10.5498 14 9.99982C14 9.44982 13.8042 8.97898 13.4125 8.58732C13.0208 8.19565 12.55 7.99982 12 7.99982C11.45 7.99982 10.9792 8.19565 10.5875 8.58732C10.1958 8.97898 10 9.44982 10 9.99982C10 10.5498 10.1958 11.0207 10.5875 11.4123C10.9792 11.804 11.45 11.9998 12 11.9998ZM12 21.9998C9.31667 19.7165 7.3125 17.5956 5.9875 15.6373C4.6625 13.679 4 11.8665 4 10.1998C4 7.69982 4.80417 5.70815 6.4125 4.22482C8.02083 2.74148 9.88333 1.99982 12 1.99982C14.1167 1.99982 15.9792 2.74148 17.5875 4.22482C19.1958 5.70815 20 7.69982 20 10.1998C20 11.8665 19.3375 13.679 18.0125 15.6373C16.6875 17.5956 14.6833 19.7165 12 21.9998Z" fill="#FFC400"/>
</g>
</g>
</svg>
