<svg width="48" height="48" viewBox="0 0 48 48" fill="none" xmlns="http://www.w3.org/2000/svg">
<g id="mail">
<mask id="mask0_59_2063" style="mask-type:alpha" maskUnits="userSpaceOnUse" x="0" y="0" width="48" height="48">
<rect id="Bounding box" width="48" height="48" fill="#D9D9D9"/>
</mask>
<g mask="url(#mask0_59_2063)">
<path id="mail_2" d="M7.99999 40C6.89999 40 5.95833 39.6083 5.17499 38.825C4.39166 38.0417 3.99999 37.1 3.99999 36V12C3.99999 10.9 4.39166 9.95833 5.17499 9.175C5.95833 8.39167 6.89999 8 7.99999 8H40C41.1 8 42.0417 8.39167 42.825 9.175C43.6083 9.95833 44 10.9 44 12V36C44 37.1 43.6083 38.0417 42.825 38.825C42.0417 39.6083 41.1 40 40 40H7.99999ZM24 26L40 16V12L24 22L7.99999 12V16L24 26Z" fill="#FFC400"/>
</g>
</g>
</svg>
